HIERARCHY
ROOT Hips
{
	OFFSET 0.000000 71.427986 0.000000
	CHANNELS 6 Xposition Yposition Zposition Xrotation Yrotation Zrotation
	JOINT Pelvis
	{
		OFFSET 0.000000 0.000000 0.000000
		CHANNELS 3 Xrotation Yrotation Zrotation
		JOINT LeftUpLeg
		{
			OFFSET 6.797100 -2.508499 -1.318700
			CHANNELS 3 Xrotation Yrotation Zrotation
			JOINT LeftLeg
			{
				OFFSET 0.069008 -29.241863 0.690200
				CHANNELS 3 Xrotation Yrotation Zrotation
				JOINT LeftFoot
				{
					OFFSET -0.069008 -29.568123 -0.266800
					CHANNELS 3 Xrotation Yrotation Zrotation
					JOINT LeftToeBase
					{
						OFFSET 3.145500 -8.631000 16.059900
						CHANNELS 3 Xrotation Yrotation Zrotation
						End Site
						{
							OFFSET 0.000000 18.501587 0.000000
						}
					}
				}
			}
			JOINT Left_ShortSleeve
			{
				OFFSET 0.265923 -10.480953 1.153800
				CHANNELS 3 Xrotation Yrotation Zrotation
				End Site
				{
					OFFSET 1.725763 19.823879 0.000000
				}
			}
		}
		JOINT RightUpLeg
		{
			OFFSET -6.797100 -2.508499 -1.318700
			CHANNELS 3 Xrotation Yrotation Zrotation
			JOINT RightLeg
			{
				OFFSET -0.082453 -29.241932 0.688000
				CHANNELS 3 Xrotation Yrotation Zrotation
				JOINT RightFoot
				{
					OFFSET 0.082453 -29.568058 -0.264600
					CHANNELS 3 Xrotation Yrotation Zrotation
					JOINT RightToeBase
					{
						OFFSET -3.115300 -8.682800 16.113400
						CHANNELS 3 Xrotation Yrotation Zrotation
						End Site
						{
							OFFSET 0.000000 18.567114 0.000000
						}
					}
				}
			}
			JOINT Right_ShortSleeve
			{
				OFFSET -0.265923 -10.480953 1.153800
				CHANNELS 3 Xrotation Yrotation Zrotation
				End Site
				{
					OFFSET -1.725766 19.823910 0.000000
				}
			}
		}
	}
	JOINT Spine
	{
		OFFSET 0.000000 13.368103 0.470500
		CHANNELS 3 Xrotation Yrotation Zrotation
		JOINT Spine1
		{
			OFFSET 0.147000 13.837402 0.538800
			CHANNELS 3 Xrotation Yrotation Zrotation
			JOINT Spine2
			{
				OFFSET 0.168000 16.242897 -1.435500
				CHANNELS 3 Xrotation Yrotation Zrotation
				JOINT Neck
				{
					OFFSET 0.217200 18.631500 -1.679100
					CHANNELS 3 Xrotation Yrotation Zrotation
					JOINT Head
					{
						OFFSET 0.000000 6.599396 1.385900
						CHANNELS 3 Xrotation Yrotation Zrotation
						JOINT Hat
						{
							OFFSET -0.532200 27.220596 -10.096100
							CHANNELS 3 Xrotation Yrotation Zrotation
							End Site
							{
								OFFSET 0.000000 22.029861 0.000000
							}
						}
						JOINT HairD
						{
							OFFSET -10.777400 17.437393 -1.325900
							CHANNELS 3 Xrotation Yrotation Zrotation
							JOINT HairD1
							{
								OFFSET -3.290299 -11.051193 1.062200
								CHANNELS 3 Xrotation Yrotation Zrotation
								End Site
								{
									OFFSET 0.000000 11.579437 0.000000
								}
							}
						}
						JOINT HairB
						{
							OFFSET -10.777400 17.437393 1.467900
							CHANNELS 3 Xrotation Yrotation Zrotation
							JOINT HairB1
							{
								OFFSET -1.561200 -12.956299 3.590200
								CHANNELS 3 Xrotation Yrotation Zrotation
								End Site
								{
									OFFSET 0.000000 13.534866 0.000000
								}
							}
						}
						JOINT HairA
						{
							OFFSET 9.713100 17.437393 1.467900
							CHANNELS 3 Xrotation Yrotation Zrotation
							JOINT HairA1
							{
								OFFSET 1.561200 -12.956299 3.590200
								CHANNELS 3 Xrotation Yrotation Zrotation
								End Site
								{
									OFFSET 0.000000 13.534866 0.000000
								}
							}
						}
						JOINT HairC
						{
							OFFSET 9.713100 17.437393 -1.325900
							CHANNELS 3 Xrotation Yrotation Zrotation
							JOINT HairC1
							{
								OFFSET 3.290300 -11.051193 1.062200
								CHANNELS 3 Xrotation Yrotation Zrotation
								End Site
								{
									OFFSET 0.000000 11.579437 0.000000
								}
							}
						}
					}
				}
				JOINT LeftShoulder
				{
					OFFSET 5.101800 15.108002 -2.763700
					CHANNELS 3 Xrotation Yrotation Zrotation
					JOINT LeftArm
					{
						OFFSET 9.825497 2.506317 -1.597400
						CHANNELS 3 Xrotation Yrotation Zrotation
						JOINT LeftForeArm
						{
							OFFSET 21.966244 0.000000 0.000000
							CHANNELS 3 Xrotation Yrotation Zrotation
							JOINT LeftHand
							{
								OFFSET 33.879036 0.000000 0.000000
								CHANNELS 3 Xrotation Yrotation Zrotation
								JOINT LeftHandThumb1
								{
									OFFSET 6.715286 -2.359680 3.363841
									CHANNELS 3 Xrotation Yrotation Zrotation
									JOINT LeftHandThumb2
									{
										OFFSET 2.507072 -1.447464 1.447461
										CHANNELS 3 Xrotation Yrotation Zrotation
										JOINT LeftHandThumb3
										{
											OFFSET 2.898338 -1.673355 1.673357
											CHANNELS 3 Xrotation Yrotation Zrotation
											End Site
											{
												OFFSET -0.295959 3.727692 -0.131651
											}
										}
									}
								}
								JOINT LeftHandIndex1
								{
									OFFSET 14.190811 -0.254547 3.840278
									CHANNELS 3 Xrotation Yrotation Zrotation
									JOINT LeftHandIndex2
									{
										OFFSET 3.551727 0.000000 -0.000000
										CHANNELS 3 Xrotation Yrotation Zrotation
										JOINT LeftHandIndex3
										{
											OFFSET 2.894196 0.000000 0.000000
											CHANNELS 3 Xrotation Yrotation Zrotation
											End Site
											{
												OFFSET -1.000603 2.690872 0.366626
											}
										}
									}
								}
								JOINT LeftHandMiddle1
								{
									OFFSET 13.776489 0.000000 0.000000
									CHANNELS 3 Xrotation Yrotation Zrotation
									JOINT LeftHandMiddle2
									{
										OFFSET 3.438232 0.000000 0.000000
										CHANNELS 3 Xrotation Yrotation Zrotation
										JOINT LeftHandMiddle3
										{
											OFFSET 3.691551 0.000000 0.000000
											CHANNELS 3 Xrotation Yrotation Zrotation
											End Site
											{
												OFFSET -1.082298 3.499527 0.457670
											}
										}
									}
								}
								JOINT LeftHandRing1
								{
									OFFSET 13.966164 -0.268127 -3.067488
									CHANNELS 3 Xrotation Yrotation Zrotation
									JOINT LeftHandRing2
									{
										OFFSET 3.162567 0.000000 0.000000
										CHANNELS 3 Xrotation Yrotation Zrotation
										JOINT LeftHandRing3
										{
											OFFSET 3.324348 0.000000 0.000000
											CHANNELS 3 Xrotation Yrotation Zrotation
											End Site
											{
												OFFSET -0.861900 3.184998 0.405154
											}
										}
									}
								}
								JOINT LeftHandPinky1
								{
									OFFSET 13.131393 -0.168503 -5.746925
									CHANNELS 3 Xrotation Yrotation Zrotation
									JOINT LeftHandPinky2
									{
										OFFSET 2.849182 0.000000 0.000000
										CHANNELS 3 Xrotation Yrotation Zrotation
										JOINT LeftHandPinky3
										{
											OFFSET 2.805038 0.000000 0.000000
											CHANNELS 3 Xrotation Yrotation Zrotation
											End Site
											{
												OFFSET -0.882500 2.642609 0.325652
											}
										}
									}
								}
							}
							JOINT Left_Sleeve
							{
								OFFSET 6.592125 -0.646545 0.805568
								CHANNELS 3 Xrotation Yrotation Zrotation
								End Site
								{
									OFFSET -0.000179 20.275787 -0.000000
								}
							}
						}
					}
				}
				JOINT RightShoulder
				{
					OFFSET -5.731700 15.108002 -2.763700
					CHANNELS 3 Xrotation Yrotation Zrotation
					JOINT RightArm
					{
						OFFSET -9.825497 2.506317 -1.597400
						CHANNELS 3 Xrotation Yrotation Zrotation
						JOINT RightForeArm
						{
							OFFSET -21.966242 0.000000 0.000000
							CHANNELS 3 Xrotation Yrotation Zrotation
							JOINT RightHand
							{
								OFFSET -33.879032 0.000000 0.000000
								CHANNELS 3 Xrotation Yrotation Zrotation
								JOINT RightHandThumb1
								{
									OFFSET -6.715286 -2.359680 3.363841
									CHANNELS 3 Xrotation Yrotation Zrotation
									JOINT RightHandThumb2
									{
										OFFSET -2.507072 -1.447464 1.447461
										CHANNELS 3 Xrotation Yrotation Zrotation
										JOINT RightHandThumb3
										{
											OFFSET -2.898338 -1.673355 1.673357
											CHANNELS 3 Xrotation Yrotation Zrotation
											End Site
											{
												OFFSET 0.295959 3.727692 -0.131651
											}
										}
									}
								}
								JOINT RightHandIndex1
								{
									OFFSET -14.190811 -0.254547 3.840278
									CHANNELS 3 Xrotation Yrotation Zrotation
									JOINT RightHandIndex2
									{
										OFFSET -3.551727 0.000000 -0.000000
										CHANNELS 3 Xrotation Yrotation Zrotation
										JOINT RightHandIndex3
										{
											OFFSET -2.894196 0.000000 0.000000
											CHANNELS 3 Xrotation Yrotation Zrotation
											End Site
											{
												OFFSET 1.000603 2.690872 0.366626
											}
										}
									}
								}
								JOINT RightHandMiddle1
								{
									OFFSET -13.776489 0.000000 0.000000
									CHANNELS 3 Xrotation Yrotation Zrotation
									JOINT RightHandMiddle2
									{
										OFFSET -3.438232 0.000000 0.000000
										CHANNELS 3 Xrotation Yrotation Zrotation
										JOINT RightHandMiddle3
										{
											OFFSET -3.691551 0.000000 0.000000
											CHANNELS 3 Xrotation Yrotation Zrotation
											End Site
											{
												OFFSET 1.082298 3.499527 0.457670
											}
										}
									}
								}
								JOINT RightHandRing1
								{
									OFFSET -13.966164 -0.268127 -3.067488
									CHANNELS 3 Xrotation Yrotation Zrotation
									JOINT RightHandRing2
									{
										OFFSET -3.162567 0.000000 0.000000
										CHANNELS 3 Xrotation Yrotation Zrotation
										JOINT RightHandRing3
										{
											OFFSET -3.324348 0.000000 0.000000
											CHANNELS 3 Xrotation Yrotation Zrotation
											End Site
											{
												OFFSET 0.861900 3.184998 0.405154
											}
										}
									}
								}
								JOINT RightHandPinky1
								{
									OFFSET -13.131393 -0.168503 -5.746925
									CHANNELS 3 Xrotation Yrotation Zrotation
									JOINT RightHandPinky2
									{
										OFFSET -2.849182 0.000000 0.000000
										CHANNELS 3 Xrotation Yrotation Zrotation
										JOINT RightHandPinky3
										{
											OFFSET -2.805038 0.000000 0.000000
											CHANNELS 3 Xrotation Yrotation Zrotation
											End Site
											{
												OFFSET 0.882500 2.642609 0.325652
											}
										}
									}
								}
							}
							JOINT Right_Sleeve
							{
								OFFSET -6.592125 -0.646545 0.805568
								CHANNELS 3 Xrotation Yrotation Zrotation
								End Site
								{
									OFFSET 0.000179 20.275787 -0.000000
								}
							}
						}
					}
				}
				JOINT Bind_Right_JacketString
				{
					OFFSET -3.534800 11.969597 7.200700
					CHANNELS 3 Xrotation Yrotation Zrotation
					JOINT Bind_Right_JacketString1
					{
						OFFSET -0.319900 -6.102600 2.794100
						CHANNELS 3 Xrotation Yrotation Zrotation
						End Site
						{
							OFFSET 0.000000 6.719452 0.000000
						}
					}
				}
				JOINT Bind_Left_JacketString
				{
					OFFSET 2.904800 11.969597 7.200700
					CHANNELS 3 Xrotation Yrotation Zrotation
					JOINT Bind_Left_JacketString1
					{
						OFFSET 0.364800 -5.904503 3.186800
						CHANNELS 3 Xrotation Yrotation Zrotation
						End Site
						{
							OFFSET 0.000000 6.719513 0.000000
						}
					}
				}
				JOINT HairE
				{
					OFFSET 5.915200 17.612701 -11.592200
					CHANNELS 3 Xrotation Yrotation Zrotation
					JOINT HairE1
					{
						OFFSET 0.289200 -7.171898 -1.284500
						CHANNELS 3 Xrotation Yrotation Zrotation
						End Site
						{
							OFFSET 0.000000 7.291756 0.000000
						}
					}
				}
				JOINT HairF
				{
					OFFSET -0.864800 17.612701 -11.592200
					CHANNELS 3 Xrotation Yrotation Zrotation
					JOINT HairF1
					{
						OFFSET 0.000000 -14.087097 -2.127501
						CHANNELS 3 Xrotation Yrotation Zrotation
						End Site
						{
							OFFSET 0.000000 14.246841 0.000000
						}
					}
				}
				JOINT HairG
				{
					OFFSET -8.087700 17.612701 -11.592200
					CHANNELS 3 Xrotation Yrotation Zrotation
					JOINT HairG1
					{
						OFFSET -0.293600 -6.081398 -0.910100
						CHANNELS 3 Xrotation Yrotation Zrotation
						End Site
						{
							OFFSET 0.000000 6.156120 0.000000
						}
					}
				}
			}
		}
	}
	JOINT Pouch
	{
		OFFSET 0.000000 4.394501 10.847300
		CHANNELS 3 Xrotation Yrotation Zrotation
		End Site
		{
			OFFSET 0.000000 21.880577 0.000000
		}
	}
	JOINT Bag
	{
		OFFSET -13.229000 4.813004 -0.593300
		CHANNELS 3 Xrotation Yrotation Zrotation
		End Site
		{
			OFFSET 0.000000 21.880577 0.000000
		}
	}
	JOINT OccupyGuyFacialAnim_Joint
	{
		OFFSET 1.000000 -70.206398 -1.655000
		CHANNELS 3 Xrotation Yrotation Zrotation
		End Site
		{
			OFFSET 0.000000 21.880577 0.000000
		}
	}
}
MOTION
Frames: 4
Frame Time: 0.033333
-7.412930 58.920715 45.604877 15.818634 5.526552 -5.179329 -0.000003 -0.000000 0.000001 -68.638388 -3.064268 7.610941 46.102848 -6.552099 -7.278641 7.626867 -20.923853 3.119723 -0.000000 -0.000000 0.000000 -0.000001 -0.000001 -0.000000 2.933132 -9.838783 5.825665 51.600997 -13.670116 -1.496624 -12.934095 -1.230710 22.277647 0.000001 0.000000 -0.000001 0.000000 -0.000000 -0.000000 22.133160 6.502661 -14.187897 -4.696715 1.738636 -1.938535 -4.707070 1.532285 -2.117758 2.607795 -3.193004 2.354734 -30.016629 -14.966522 4.385650 -0.000000 0.000000 0.000000 -0.000000 0.000000 0.000000 -0.000000 0.000000 0.000001 -0.000000 0.000000 0.000001 0.000000 0.000000 0.000001 -0.000000 0.000000 0.000001 0.000000 0.000000 0.000001 -0.000000 0.000000 0.000000 -0.000000 0.000000 0.000000 6.513275 -14.906671 -13.719398 -11.392283 4.846387 -17.959614 -0.000002 -29.622018 -0.000002 -43.131514 1.663973 4.878865 1.234195 6.505107 -4.904090 5.636195 14.314355 19.291470 -0.000002 0.000002 0.000000 0.355654 -8.734766 0.963515 0.213257 1.567810 -15.491130 0.000004 0.000001 -0.000000 -0.391331 1.988152 -18.844183 0.054257 0.796314 -7.795352 0.000001 -0.000000 0.000001 1.518271 7.669215 -18.240203 0.247596 1.686815 -16.700743 0.000003 0.000000 0.000003 5.268682 13.644557 -27.488875 0.281643 1.796291 -17.820406 -0.000005 -0.000001 0.000003 -0.000001 0.000000 0.000001 2.005990 15.950920 -2.733011 -80.197718 36.396784 -0.401910 -0.000004 0.000154 0.000009 -31.880847 30.016503 -45.449530 -10.947328 -3.054812 3.379055 25.352692 -15.741781 -9.498891 0.000001 0.000002 0.000003 -7.003768 3.662160 42.834230 0.113987 -1.025149 12.689148 -0.000001 0.000003 -0.000001 -0.324544 0.185796 7.756967 0.003314 -0.175423 2.154028 0.000003 0.000002 0.000001 0.620371 -5.653645 10.977796 0.329972 -1.723475 21.676468 -0.000001 -0.000001 -0.000005 2.786279 -9.927197 21.876230 0.061655 -0.756085 9.323015 -0.000003 -0.000002 0.000000 -0.000002 0.000001 -0.000001 0.000001 0.000000 -0.000000 0.000000 0.000000 0.000001 0.000001 0.000000 -0.000000 0.000001 0.000000 -0.000000 0.000001 0.000000 -0.000000 0.000000 0.000000 0.000001 0.000001 0.000000 -0.000000 0.000001 0.000000 -0.000000 0.000001 0.000000 -0.000000 0.000000 0.000000 0.000001 -0.000003 -0.000000 0.000001 -0.000003 -0.000000 0.000001 -0.000003 -0.000000 0.000001 
-7.729258 59.353439 46.492817 18.790096 9.807921 -4.752899 0.000000 -0.000001 0.000000 -69.240189 -1.691216 5.655491 42.882813 -6.729018 -9.197711 9.574417 -23.497878 5.110964 0.000000 -0.000000 0.000000 -0.000000 0.000001 0.000001 0.123854 -9.318011 7.015245 50.660562 -13.380137 -1.325072 -7.136198 -1.832340 20.076436 0.000003 -0.000001 0.000000 -0.000000 -0.000000 0.000000 26.215847 9.759527 -16.756744 -3.990741 2.295544 -3.314446 -3.952587 2.029846 -3.544167 1.389625 -4.850783 2.737692 -31.984273 -22.242043 2.419113 0.000000 0.000000 -0.000000 0.000000 0.000000 -0.000000 0.000000 0.000000 0.000000 0.000000 0.000000 0.000001 -0.000000 0.000000 0.000001 0.000000 0.000000 0.000001 -0.000000 0.000000 0.000001 0.000000 0.000000 -0.000000 0.000000 0.000000 -0.000000 6.398709 -13.712538 -14.765375 -13.543024 5.330273 -17.462306 -0.000002 -28.377010 -0.000008 -39.885279 1.354049 3.721075 1.234225 6.504327 -4.903354 5.712695 14.451946 19.273090 -0.000003 -0.000000 -0.000004 0.302897 -8.755883 0.681388 0.221309 1.596582 -15.782812 0.000000 -0.000001 0.000001 -0.394813 2.003389 -19.041193 0.057103 0.816894 -7.997944 0.000002 0.000002 -0.000003 1.532951 7.680222 -18.403721 0.252415 1.702695 -16.862656 -0.000001 0.000000 0.000001 5.471286 13.652994 -28.525312 0.313946 1.893799 -18.823697 -0.000002 -0.000001 0.000001 -0.000001 0.000000 -0.000002 1.867730 8.787933 -7.259219 -38.170888 28.041316 -8.057143 -0.000004 0.000001 0.000000 -37.406859 -3.868238 -39.728485 -10.786146 -2.903494 2.611410 24.105158 -12.600233 -9.892091 -0.000002 0.000002 0.000001 -5.388729 5.509897 31.478163 0.008712 -0.284974 3.500350 -0.000003 -0.000001 -0.000002 0.408726 1.308434 -6.038267 -0.000006 0.000008 0.000161 0.000001 0.000001 0.000001 -0.020206 -4.682502 -1.688370 0.130135 -1.094365 13.561942 -0.000001 -0.000001 0.000002 1.345170 -9.413742 10.731554 -0.000007 0.000008 0.000037 0.000003 0.000001 0.000004 -0.000000 -0.000002 0.000000 0.000001 -0.000000 -0.000000 -0.000000 0.000003 -0.000001 0.000001 -0.000000 -0.000001 0.000001 -0.000000 -0.000001 0.000001 -0.000000 -0.000000 -0.000000 0.000003 -0.000001 0.000001 -0.000000 -0.000001 0.000001 -0.000000 -0.000001 0.000001 -0.000000 -0.000000 -0.000000 0.000003 -0.000001 0.000000 -0.000001 0.000000 0.000000 -0.000001 0.000000 0.000000 -0.000001 0.000000 
-8.101090 59.976852 47.688606 21.141563 12.148286 -4.145575 0.000001 -0.000000 -0.000000 -68.891535 -0.336598 4.901256 40.201800 -6.864645 -10.668808 10.338839 -25.240896 6.238665 -0.000000 -0.000000 -0.000000 0.000001 0.000001 0.000000 -1.713818 -9.125513 7.121029 48.396040 -12.917784 -1.423510 -1.049583 -1.683817 18.011697 -0.000002 -0.000001 0.000001 0.000000 -0.000000 -0.000000 28.906126 10.109989 -19.813954 -3.478795 2.547243 -3.693622 -3.432249 2.248821 -3.938099 0.677512 -5.581993 2.860912 -32.060655 -25.280736 1.192642 -0.000000 0.000001 0.000000 -0.000000 0.000001 0.000000 -0.000000 0.000001 0.000000 -0.000000 0.000001 0.000000 0.000000 0.000001 -0.000001 -0.000000 0.000001 0.000000 0.000000 0.000001 -0.000001 -0.000000 0.000001 0.000000 -0.000000 0.000001 0.000000 6.451461 -10.993818 -15.268521 -13.552529 8.460672 -19.065563 0.000007 -23.093851 0.000011 -40.460360 -4.156879 4.455248 1.234247 6.503336 -4.902422 5.791062 14.592991 19.253958 -0.000001 0.000002 0.000001 0.219853 -8.774695 0.242541 0.233969 1.640692 -16.231070 -0.000000 0.000001 -0.000000 -0.400299 2.029863 -19.372010 0.062230 0.852549 -8.349578 0.000000 0.000001 -0.000001 1.560703 7.701689 -18.707659 0.261417 1.732142 -17.163547 -0.000002 -0.000001 0.000001 5.735543 13.658901 -29.875664 0.358577 2.019936 -20.130989 0.000001 -0.000000 0.000001 -0.000001 0.000001 -0.000001 1.395418 4.527169 -11.377680 -17.801875 37.926172 1.395474 -0.000001 4.139378 -0.000002 -26.881698 -18.830977 -16.375384 -10.583773 -2.730337 1.678040 24.543049 -13.063719 -9.715409 -0.000000 -0.000001 0.000002 -3.542234 7.557218 19.278503 0.008685 -0.284689 3.497005 -0.000000 -0.000000 -0.000003 0.349386 1.232964 -5.086906 -0.000001 0.000000 -0.000001 0.000002 -0.000001 0.000001 0.002295 -4.728076 -1.155844 0.129811 -1.093038 13.545120 0.000000 0.000002 -0.000001 1.378980 -9.427741 11.006203 0.000006 0.000010 0.000060 -0.000001 0.000001 0.000001 -0.000000 -0.000000 -0.000000 0.000002 -0.000001 0.000001 0.000002 -0.000000 -0.000002 0.000002 -0.000001 0.000002 0.000002 -0.000001 0.000002 0.000002 -0.000001 0.000001 0.000002 -0.000000 -0.000001 0.000002 -0.000001 0.000002 0.000002 -0.000001 0.000002 0.000002 -0.000001 0.000001 0.000002 -0.000000 -0.000001 0.000001 -0.000000 -0.000000 0.000001 -0.000000 -0.000000 0.000001 -0.000000 -0.000000 
-8.464343 60.503159 49.040237 23.126172 13.670569 -4.344396 -0.000002 -0.000000 -0.000000 -68.997642 0.446362 4.450557 39.377939 -6.876429 -10.701790 9.728316 -26.925617 6.437020 0.000000 0.000000 0.000000 0.000004 -0.000001 -0.000001 -2.510112 -9.291959 7.385707 45.456630 -12.424629 -1.064750 4.304172 -1.953435 16.975747 -0.000001 -0.000001 0.000004 -0.000001 0.000000 0.000000 31.953015 11.597263 -22.779676 -2.884021 2.943007 -3.524110 -2.844582 2.647459 -3.791426 -0.273630 -6.432731 3.031935 -32.889140 -28.648672 -0.829088 0.000001 0.000001 -0.000001 0.000001 0.000001 -0.000001 0.000001 0.000001 -0.000001 0.000001 0.000001 -0.000001 0.000001 0.000001 -0.000001 0.000001 0.000001 -0.000001 0.000001 0.000001 -0.000001 0.000001 0.000001 -0.000001 0.000001 0.000001 -0.000001 6.613772 -8.222891 -14.932759 -13.470626 8.929057 -22.452918 -0.000000 -15.121260 0.000001 -41.122909 -4.452947 5.980435 1.234287 6.502135 -4.901307 5.871239 14.737308 19.234168 0.000002 0.000001 -0.000003 0.110618 -8.791193 -0.329357 0.250878 1.697676 -16.811368 0.000002 0.000004 -0.000001 -0.406962 2.066971 -19.815449 0.069604 0.901306 -8.830902 0.000003 -0.000003 -0.000003 1.599936 7.731978 -19.133658 0.274319 1.773361 -17.585362 0.000001 0.000002 0.000000 6.050991 13.658184 -31.487100 0.415606 2.169133 -21.691463 -0.000001 -0.000001 0.000003 0.000003 0.000000 -0.000002 2.186111 10.813907 -6.738534 -32.235020 30.761256 24.658110 -0.000006 40.559402 -0.000002 -7.804653 -16.894458 23.636565 -10.347297 -2.549326 0.624399 25.180257 -13.964427 -9.463756 -0.000001 -0.000002 0.000000 -1.733811 8.999299 9.253954 0.008665 -0.284318 3.492337 0.000000 0.000001 0.000001 0.244423 1.093739 -3.348051 0.000001 0.000000 0.000039 -0.000001 0.000000 0.000001 0.044556 -4.808852 -0.182141 0.129220 -1.090609 13.514385 -0.000000 -0.000000 -0.000000 1.441477 -9.455609 11.508134 0.000005 0.000015 0.000111 -0.000001 0.000000 -0.000001 -0.000002 -0.000001 0.000003 0.000002 -0.000001 0.000001 0.000002 0.000002 -0.000003 0.000002 -0.000001 -0.000001 0.000002 -0.000001 -0.000001 0.000002 -0.000001 0.000001 0.000002 0.000002 -0.000003 0.000002 -0.000001 -0.000001 0.000002 -0.000001 -0.000001 0.000002 -0.000001 0.000001 0.000002 0.000002 -0.000003 -0.000002 -0.000000 -0.000000 -0.000002 -0.000000 -0.000000 -0.000002 -0.000000 -0.000000 
